# xmcd
#
# Track frame offsets:
#        150
#        21667
#        39273
#        60444
#        78499
#        101091
#        120559
#        124759
#        147665
#        158638
#        178012
#        195487
#
# Disc length: 2871 seconds
#
# Revision: 0
# Processed by: cddbd v1.5.1PL0 Copyright (c) Steve Scherf et al.
# Submitted via: ExactAudioCopy v0.95a5
#
DISCID=a10b350c
DTITLE=Gorilla Attack - FROM FIRST TO LAST
DYEAR=2005
DGENRE=Indies
TTITLE0=Boader Line
TTITLE1=Flawless
TTITLE2=Needle
TTITLE3=Bell
TTITLE4=Your Song
TTITLE5=Bloom
TTITLE6=In the wind
TTITLE7=Letter
TTITLE8=Mind Back
TTITLE9=Lost
TTITLE10=Pulse
TTITLE11=Piece
EXTD=
EXTT0=
EXTT1=
EXTT2=
EXTT3=
EXTT4=
EXTT5=
EXTT6=
EXTT7=
EXTT8=
EXTT9=
EXTT10=
EXTT11=
PLAYORDER=
